<?xml version="1.0" standalone="no"?>
<!DOCTYPE svg PUBLIC "-//W3C//DTD SVG 20010904//EN"
 "http://www.w3.org/TR/2001/REC-SVG-20010904/DTD/svg10.dtd">
<svg version="1.0" xmlns="http://www.w3.org/2000/svg"
 width="1176.000000pt" height="1176.000000pt" viewBox="0 0 1176.000000 1176.000000"
 preserveAspectRatio="xMidYMid meet">
<metadata>
Created by potrace 1.11, written by Peter Selinger 2001-2013
</metadata>
<g transform="translate(0.000000,1176.000000) scale(0.100000,-0.100000)"
fill="#000000" stroke="none">
<path d="M10787 8770 c36 -19 42 -26 37 -45 -4 -15 3 -39 20 -68 34 -58 43
-122 23 -170 -19 -43 -26 -44 -142 -21 -117 24 -439 24 -559 1 -334 -67 -720
-328 -1188 -803 -75 -76 -180 -191 -234 -254 -54 -63 -128 -145 -165 -181 -78
-78 -233 -184 -281 -194 -18 -3 -54 -11 -79 -17 -36 -9 -51 -8 -74 3 -56 27
-39 122 29 166 23 15 36 31 38 50 6 51 40 32 53 -29 3 -16 9 -28 13 -28 4 0
25 28 47 62 l39 61 -23 161 c-33 232 -89 562 -106 631 -23 88 -60 162 -104
210 -27 29 -41 55 -46 85 -24 139 -140 256 -275 274 -43 6 -44 6 -23 -10 18
-13 20 -20 12 -35 -7 -13 -6 -31 4 -59 17 -50 7 -136 -20 -183 l-19 -32 -147
-7 c-85 -5 -186 -17 -239 -28 -59 -14 -159 -25 -273 -30 -99 -5 -232 -15 -296
-21 -104 -10 -122 -10 -175 6 -33 10 -67 27 -76 39 -25 31 -33 13 -33 -79 0
-82 1 -85 35 -120 19 -19 56 -45 82 -57 44 -20 48 -24 48 -57 1 -76 57 -153
137 -186 19 -8 74 -21 121 -29 140 -23 135 -19 166 -138 33 -125 41 -160 61
-263 9 -44 18 -88 21 -98 4 -11 -29 6 -91 48 -53 36 -103 65 -109 65 -7 0 -21
9 -31 20 -19 21 -161 110 -175 110 -4 0 -13 7 -20 15 -7 8 -21 15 -31 15 -11
0 -19 4 -19 10 0 5 -3 9 -7 9 -20 -3 -33 2 -30 13 1 7 -8 13 -21 14 -13 1 -28
9 -35 18 -7 9 -23 18 -37 21 -46 9 -53 29 -46 153 7 110 6 113 -18 137 -26 26
-46 32 -46 15 0 -5 7 -10 15 -10 33 0 43 -41 38 -148 -5 -88 -8 -102 -22 -100
-13 3 -17 20 -19 98 -2 52 -7 99 -12 104 -7 7 -10 5 -10 -3 0 -7 -9 -11 -22
-9 -11 2 -23 -3 -25 -9 -3 -8 5 -13 21 -13 36 0 35 -30 -1 -31 -24 -2 -25 -2
-5 -6 13 -3 22 -12 22 -23 0 -11 -9 -20 -22 -23 l-23 -4 23 -2 c17 -1 22 -7
22 -30 0 -23 -5 -31 -22 -34 l-23 -4 23 -2 c20 -1 22 -6 22 -51 0 -43 -3 -50
-20 -50 -11 0 -20 -4 -20 -10 0 -5 9 -10 20 -10 20 0 20 -7 21 -627 0 -346 4
-674 8 -731 10 -132 16 -139 129 -148 l82 -7 0 -35 c0 -29 -2 -32 -14 -23 -53
44 -576 45 -620 1 -18 -18 -26 -11 -26 24 l0 33 80 7 c122 11 120 8 132 211
10 169 4 1337 -7 1405 -3 19 -15 42 -26 51 l-22 16 22 6 c19 5 21 9 12 25 -5
10 -7 29 -4 42 6 23 5 23 -71 18 -54 -4 -82 -10 -96 -23 -18 -17 -21 -17 -37
-2 -36 32 -399 184 -593 247 -30 10 -107 37 -170 60 -149 54 -382 124 -550
165 -99 25 -235 57 -255 61 -11 2 -38 8 -60 13 -136 32 -183 42 -295 61 -69
11 -150 25 -180 30 -30 5 -91 14 -135 20 -44 5 -129 16 -190 24 -518 68 -1123
68 -1590 0 -184 -27 -462 -84 -510 -104 -11 -4 -65 -23 -120 -40 -258 -84
-401 -157 -597 -307 -137 -104 -266 -266 -317 -395 -41 -106 -71 -253 -71
-352 0 -111 35 -332 66 -424 94 -273 290 -551 569 -806 171 -156 405 -340 405
-318 0 6 -29 31 -65 56 -201 144 -468 391 -599 556 -81 101 -182 252 -224 335
-31 62 -95 235 -89 241 2 2 18 -34 36 -80 18 -47 53 -118 78 -158 50 -81 115
-180 123 -188 3 -3 28 -34 55 -70 121 -160 365 -394 597 -571 l93 -71 8 58 c4
33 6 464 5 959 l-3 900 -22 36 c-14 25 -18 40 -11 47 17 17 -12 26 -99 30 -70
4 -87 2 -103 -13 -17 -16 -20 -16 -26 -2 -3 8 -4 28 -2 43 l3 27 390 0 390 -1
3 -33 c2 -23 0 -31 -7 -24 -13 13 -220 2 -248 -13 -20 -11 -36 -43 -47 -94 -6
-25 -4 -28 20 -28 20 0 25 -4 20 -16 -3 -9 -6 -334 -6 -723 l0 -708 -21 1
c-12 1 -24 -5 -26 -11 -3 -8 5 -13 21 -13 29 0 31 -12 19 -83 -5 -31 -10 -38
-24 -34 -10 3 -20 -2 -23 -10 -9 -22 -8 -23 19 -23 14 0 25 -4 25 -10 0 -5
-11 -10 -24 -10 -22 0 -26 -7 -36 -57 -29 -138 -152 -327 -262 -400 -66 -45
-160 -83 -202 -83 -31 0 -66 -43 -66 -80 0 -42 31 -63 93 -62 128 1 233 54
364 184 l62 61 88 -55 c196 -122 622 -341 833 -428 l106 -44 -4 -220 c-7 -395
42 -636 189 -915 67 -129 282 -449 367 -546 196 -227 488 -395 802 -462 72
-15 133 -18 390 -18 274 0 318 3 435 24 492 88 955 331 1430 751 143 127 498
489 644 657 108 124 118 133 175 153 125 43 205 74 202 78 -2 1 -30 -6 -62
-16 -70 -23 -164 -38 -149 -24 6 5 42 23 80 40 290 124 402 175 415 189 14 15
13 15 -10 1 -34 -21 -178 -78 -196 -78 -35 0 22 37 84 55 13 4 22 9 19 11 -2
2 -37 -4 -77 -15 -68 -17 -110 -18 -110 -2 0 3 42 30 93 60 50 30 132 81 181
113 49 32 90 58 92 58 1 0 5 -18 9 -41 6 -34 3 -44 -15 -63 l-21 -23 28 4 28
5 -25 -21 c-14 -11 -28 -21 -32 -21 -5 0 -8 -5 -8 -10 0 -7 6 -7 19 0 52 27
79 -11 34 -48 l-28 -23 28 12 c15 7 28 10 30 8 3 -4 48 -220 52 -254 13 -95
66 -299 110 -428 38 -111 72 -173 125 -231 21 -23 49 -64 63 -91 31 -62 92
-144 132 -177 109 -91 246 -102 610 -47 262 39 458 91 604 161 205 98 266 247
145 358 -24 22 -48 40 -54 40 -6 0 -10 31 -10 78 0 42 -6 88 -13 102 -32 63
-141 103 -341 125 -77 8 -121 17 -127 26 -15 24 -88 262 -124 407 -36 141
-106 467 -222 1022 -77 371 -83 443 -42 530 68 144 479 634 770 915 280 272
585 476 849 570 170 60 252 45 382 -70 120 -108 167 -129 298 -133 306 -11
480 136 480 403 0 112 -31 201 -99 285 -21 25 -45 73 -58 113 -26 84 -61 136
-128 191 -75 63 -178 110 -285 131 l-35 6 42 -21z m370 -452 c-3 -7 -5 -2 -5
12 0 14 2 19 5 13 2 -7 2 -19 0 -25z m-909 -10 c24 -7 32 -15 32 -33 0 -31
-20 -41 -100 -50 -112 -13 -229 -53 -395 -135 -151 -75 -334 -195 -443 -290
-22 -19 -72 -62 -111 -95 -107 -89 -289 -279 -480 -500 -14 -17 -46 -55 -71
-85 -25 -30 -47 -57 -50 -60 -4 -3 -19 -23 -36 -45 -16 -22 -37 -49 -47 -60
-11 -11 -33 -40 -50 -65 -17 -25 -35 -48 -40 -51 -5 -4 -21 -25 -36 -47 -14
-22 -45 -67 -68 -101 -24 -35 -43 -67 -43 -72 0 -21 17 -5 55 51 51 76 65 78
18 3 -34 -57 -35 -59 -29 -143 l5 -85 -29 60 c-16 33 -29 72 -30 88 0 22 -5
27 -24 27 -60 0 -58 52 5 167 44 80 77 120 223 274 50 53 149 163 221 245 163
187 332 363 457 475 294 264 579 449 813 525 57 19 84 22 145 18 41 -3 90 -10
108 -16z m852 -73 c-1 -83 -69 -174 -163 -215 -59 -26 -169 -50 -205 -44 -80
12 -98 17 -109 26 -20 16 -15 44 10 56 12 7 15 11 7 9 -16 -2 -20 4 -20 27 0
9 20 15 63 19 96 9 157 32 242 90 161 109 175 111 175 32z m-4062 -6 c38 -11
45 -19 72 -76 34 -71 36 -81 16 -64 -12 10 -13 8 -9 -10 4 -15 3 -20 -5 -15
-7 4 -12 2 -12 -4 0 -8 -6 -7 -21 1 -13 7 -40 9 -65 5 -32 -4 -44 -2 -44 7 0
8 -27 12 -94 13 -70 1 -104 6 -132 20 -41 20 -60 58 -50 98 5 21 15 25 83 34
92 12 203 9 261 -9z m-4560 -379 c61 -37 99 -140 52 -140 -12 0 -26 -12 -35
-30 -20 -38 -68 -63 -111 -58 -38 4 -38 4 -24 -23 8 -15 7 -19 -4 -19 -25 0
-84 59 -96 96 -41 124 106 242 218 174z m4906 -22 c2 -7 12 -40 21 -73 10 -33
22 -80 26 -105 7 -49 79 -353 84 -358 2 -2 32 -9 68 -17 36 -7 91 -26 121 -41
65 -32 167 -120 202 -175 36 -58 64 -183 64 -289 l0 -92 -24 15 c-25 17 -90
12 -204 -14 -30 -7 -165 -9 -367 -8 -176 2 -326 0 -333 -5 -19 -12 -15 -46 7
-46 16 0 20 -13 29 -82 15 -114 35 -174 80 -244 41 -64 100 -118 167 -153 l40
-21 17 22 c10 13 24 41 31 63 11 31 19 40 36 40 35 1 103 108 137 218 13 42
22 57 36 57 10 0 19 -6 19 -12 2 -24 5 -33 23 -88 11 -35 20 -100 23 -178 l6
-123 26 6 c14 3 65 25 114 47 62 30 91 38 98 31 15 -15 -49 -73 -121 -112
-173 -93 -415 -115 -601 -55 -72 23 -89 25 -82 8 7 -18 -1 -18 -39 2 -49 25
-127 103 -170 168 -125 193 -130 527 -10 762 24 48 144 168 185 187 15 6 27
14 27 17 0 5 -59 47 -199 143 -92 64 -252 162 -311 192 -61 31 -70 40 -70 73
0 14 6 22 17 22 21 0 308 -163 428 -243 50 -33 113 -80 142 -103 28 -24 56
-44 61 -44 5 0 30 9 56 21 26 11 79 27 119 35 39 8 73 16 74 18 2 1 -6 52 -18
112 -41 213 -50 270 -56 352 -4 59 -2 82 6 82 6 0 13 -6 15 -12z m1956 -71 c0
-2 -12 -14 -27 -28 l-28 -24 24 28 c23 25 31 32 31 24z m-125 -115 c-27 -26
-72 -67 -100 -91 -27 -24 -7 -2 45 48 52 50 97 91 100 91 3 0 -17 -22 -45 -48z
m-2697 -40 c2 -18 -1 -32 -6 -32 -12 0 -22 24 -22 52 0 32 25 15 28 -20z
m2522 -135 c0 -1 -28 -29 -62 -62 l-63 -60 60 63 c55 58 65 67 65 59z m-140
-150 c0 -2 -10 -12 -22 -23 l-23 -19 19 23 c18 21 26 27 26 19z m-3585 -53
c33 -8 94 -33 135 -56 l75 -40 187 5 c157 5 187 4 192 -8 3 -8 1 -15 -5 -15
-5 0 -27 -11 -47 -25 -34 -23 -45 -25 -156 -25 -97 0 -123 -3 -138 -17 -24
-22 -23 -33 5 -33 32 0 48 -38 55 -127 4 -69 3 -73 -16 -73 -16 0 -24 -10 -32
-42 -18 -67 -76 -163 -123 -203 -140 -121 -236 -159 -385 -153 l-96 3 -23 -35
c-13 -19 -36 -46 -51 -59 -32 -28 -62 -71 -62 -88 0 -7 9 -13 20 -13 11 0 20
-6 20 -14 0 -29 49 -73 94 -85 28 -7 150 -11 318 -11 194 0 290 -4 331 -14
133 -31 208 -127 224 -288 5 -53 4 -56 -17 -60 -32 -4 -38 -28 -8 -29 21 -2
21 -2 2 -6 -15 -3 -25 -17 -33 -46 -15 -52 -73 -159 -112 -209 -38 -47 -148
-129 -228 -168 -152 -76 -351 -92 -542 -44 -57 14 -110 31 -117 37 -9 7 -16 5
-26 -8 -18 -25 -46 -13 -117 52 -100 94 -139 199 -119 323 6 36 23 87 38 114
24 44 39 55 142 112 97 55 138 88 140 115 0 3 -19 11 -42 18 -37 11 -43 11
-54 -4 -9 -12 -17 -14 -31 -7 -57 31 -76 99 -49 178 15 45 25 55 120 122 57
40 109 85 115 99 7 14 10 27 9 28 -4 4 -139 45 -147 45 -3 0 3 -8 14 -17 19
-15 19 -15 -10 -9 -116 27 -192 166 -183 335 11 198 106 319 317 400 152 59
302 75 416 45z m-2778 -10 c4 -11 -1 -22 -13 -31 -16 -12 -17 -15 -4 -23 12
-8 11 -10 -7 -10 -13 0 -23 -4 -23 -10 0 -5 9 -10 20 -10 28 0 25 -20 -2 -21
l-23 -2 23 -4 c27 -5 29 -23 2 -23 -11 0 -20 -4 -20 -10 0 -5 9 -10 20 -10 16
0 20 -7 20 -36 0 -31 -3 -36 -19 -31 -11 3 -22 -1 -25 -8 -3 -9 4 -15 17 -17
18 -2 23 -11 25 -40 3 -35 1 -38 -25 -39 -23 -2 -24 -2 -5 -6 22 -4 22 -5 22
-196 1 -296 16 -601 32 -626 15 -25 30 -30 124 -39 67 -7 69 -8 69 -35 1 -21
-3 -26 -16 -22 -122 39 -583 35 -623 -5 -18 -18 -27 -11 -24 23 3 32 3 32 72
39 95 9 114 15 127 39 19 36 34 551 22 769 -6 105 -16 196 -22 203 -5 7 -7 24
-4 37 l6 23 -83 -6 c-45 -3 -87 -10 -93 -16 -22 -22 -38 -12 -35 21 l3 33 120
21 c124 22 267 58 294 74 24 14 41 12 48 -6z m747 10 c21 -8 20 -24 -1 -40
-16 -12 -16 -15 -3 -24 12 -8 11 -10 -7 -10 -13 0 -23 -4 -23 -10 0 -5 9 -10
20 -10 28 0 25 -20 -2 -21 l-23 -2 23 -4 c27 -5 29 -33 2 -33 -11 0 -20 -4
-20 -10 0 -5 9 -10 20 -10 13 0 20 -7 20 -20 0 -13 -7 -20 -19 -20 -11 0 -23
-5 -27 -11 -5 -8 1 -10 19 -7 15 3 28 1 30 -5 1 -5 47 31 101 79 127 115 149
130 221 149 210 54 444 -33 522 -193 26 -54 27 -65 31 -237 10 -506 18 -700
32 -722 19 -30 32 -35 115 -42 67 -6 70 -7 73 -33 3 -25 1 -27 -25 -23 -15 3
-57 10 -93 16 -36 7 -108 14 -161 16 -92 5 -96 4 -128 -22 -17 -15 -34 -26
-36 -23 -3 2 0 132 6 289 8 191 8 339 2 451 -9 150 -12 171 -37 222 -18 36
-44 68 -72 90 -44 34 -45 53 -1 41 21 -6 21 -6 -3 14 -36 29 -126 51 -207 51
-86 0 -152 -30 -263 -121 -41 -33 -82 -65 -92 -70 -9 -5 -21 -31 -27 -59 -14
-64 -14 -60 9 -60 28 0 25 -20 -2 -21 -22 -2 -22 -2 -2 -6 20 -4 21 -10 27
-301 10 -448 7 -436 134 -447 43 -4 81 -9 84 -11 4 -2 4 -14 2 -27 -5 -26 7
-26 -183 4 -105 17 -428 -5 -453 -30 -19 -19 -28 -12 -25 22 3 32 3 32 73 39
101 11 110 14 125 45 19 38 27 818 10 908 -6 33 -11 73 -11 89 l0 29 -80 -6
c-56 -4 -86 -10 -100 -22 -16 -16 -19 -16 -25 -2 -3 9 -4 26 -2 39 2 18 11 24
43 30 169 30 260 51 320 71 39 13 71 25 72 26 1 0 8 -2 17 -5z m5464 -121
c-46 -54 -114 -136 -152 -183 -84 -103 -110 -130 -67 -70 61 86 286 350 298
350 2 0 -33 -44 -79 -97z m-2970 -90 c-32 -2 -86 -2 -120 0 -35 2 -9 3 57 3
66 0 94 -1 63 -3z m2696 -248 c-34 -45 -41 -45 -12 0 13 19 27 35 31 35 4 0
-4 -16 -19 -35z m-1159 -880 c33 -8 114 -18 180 -22 l120 -7 -50 -12 c-72 -17
-155 -16 -238 2 -82 19 -110 31 -102 45 8 12 18 11 90 -6z m20 -55 c50 -11
110 -20 135 -20 25 0 52 -5 60 -10 10 -6 11 -10 3 -10 -7 0 -30 -15 -50 -33
-21 -18 -57 -45 -81 -60 -66 -43 -186 -161 -276 -272 -217 -270 -466 -544
-743 -820 -511 -508 -928 -793 -1378 -940 -494 -163 -1044 -146 -1420 42 -90
46 -162 94 -225 150 -46 41 -87 99 -78 109 7 6 148 -14 248 -35 52 -12 131
-24 174 -27 74 -7 79 -6 72 11 -6 16 -1 17 51 12 66 -6 68 -7 -82 54 -184 75
-402 234 -484 353 -38 55 -61 166 -61 292 l0 97 53 -7 52 -6 -41 19 c-61 28
-64 41 -10 41 35 0 46 4 46 16 0 19 21 15 160 -28 368 -114 1037 -239 1550
-289 141 -14 769 -28 790 -17 8 4 -91 8 -220 8 -332 0 -783 39 -1105 95 -49 9
-142 25 -205 36 -317 55 -814 178 -958 237 -60 24 -64 27 -37 30 17 2 100 -17
185 -42 680 -196 1475 -314 2143 -317 l258 -1 37 28 c20 15 44 35 52 44 8 9
48 43 88 74 92 73 392 358 638 608 220 223 264 274 484 553 35 45 48 55 65 50
11 -3 61 -15 110 -25z m152 -126 c3 -9 1 -24 -5 -33 -7 -9 -21 -34 -32 -56
-11 -22 -38 -63 -61 -90 -61 -74 -82 -101 -101 -127 -70 -96 -206 -273 -255
-334 -18 -21 -80 -97 -138 -169 -58 -71 -117 -142 -130 -156 -14 -14 -25 -30
-25 -36 0 -6 -11 -18 -25 -27 -14 -9 -25 -20 -25 -25 0 -27 -562 -591 -730
-733 -509 -428 -985 -657 -1470 -707 -191 -20 -368 -25 -443 -11 -104 18 -180
39 -192 54 -5 7 -20 18 -33 25 -12 7 -20 15 -18 19 3 5 -25 16 -62 25 -84 22
-101 32 -84 49 9 9 12 9 12 -1 0 -7 6 -11 13 -9 6 3 50 -1 97 -8 121 -18 532
-18 693 1 224 26 473 94 661 179 41 19 77 32 80 28 3 -3 6 0 6 7 0 7 5 9 10 6
6 -3 10 -1 10 5 0 6 5 8 10 5 6 -3 10 -1 10 5 0 6 5 8 10 5 6 -3 10 -2 10 3 0
5 23 20 52 32 28 12 58 28 65 36 8 8 21 14 29 14 8 0 14 4 14 9 0 5 11 12 25
15 14 4 25 11 25 16 0 6 7 10 15 10 8 0 15 5 15 10 0 6 7 10 15 10 8 0 15 5
15 10 0 6 7 10 15 10 8 0 15 5 15 10 0 6 6 10 13 10 14 1 82 51 222 164 384
309 789 736 1249 1316 77 96 142 177 145 180 4 3 44 48 90 100 132 150 152
170 167 170 8 0 17 -7 21 -16z m-5889 -81 c-4 -22 -22 -20 -26 1 -2 10 3 16
13 16 10 0 15 -7 13 -17z m5968 2 c7 -18 -13 -45 -33 -45 -17 0 -27 24 -19 45
7 20 45 19 52 0z m-5873 -48 c178 -114 567 -315 802 -416 110 -47 141 -64 143
-80 4 -24 14 -27 -157 45 -134 56 -452 211 -572 280 -184 104 -299 177 -299
190 0 23 28 16 83 -19z m5803 -26 c7 -31 5 -33 -16 -26 -29 9 -91 -50 -197
-187 -41 -54 -77 -98 -80 -98 -3 0 -1 6 4 13 5 6 40 53 78 102 38 50 71 92 74
95 3 3 26 32 51 65 72 97 74 98 86 36z m-5926 30 c0 -17 -114 -131 -164 -165
-73 -48 -156 -76 -226 -76 -65 0 -90 15 -90 56 0 31 35 33 43 3 5 -20 11 -21
66 -16 75 6 169 49 234 105 27 23 52 42 58 42 5 0 9 6 9 14 0 8 9 18 20 21 11
3 20 11 20 16 0 5 7 9 15 9 8 0 15 -4 15 -9z m6010 -90 c12 -23 13 -61 2 -61
-12 0 -40 54 -35 68 7 18 21 15 33 -7z m-380 -264 c0 -2 -10 -12 -22 -23 l-23
-19 19 23 c18 21 26 27 26 19z m-40 -51 c0 -2 -8 -10 -17 -17 -16 -13 -17 -12
-4 4 13 16 21 21 21 13z m-4400 -37 c30 -11 62 -23 70 -25 13 -4 15 -36 15
-202 0 -221 5 -250 90 -519 50 -158 55 -183 28 -162 -29 24 -102 145 -137 226
-50 119 -74 232 -101 485 -7 60 -20 82 -32 52 -6 -15 -7 -15 -14 4 -11 30 1
162 15 162 6 0 36 -9 66 -21z m4344 -34 c-14 -19 -29 -35 -31 -35 -5 0 7 18
36 53 26 31 23 18 -5 -18z m-4144 -65 c0 -5 -4 -10 -10 -10 -5 0 -10 5 -10 10
0 6 5 10 10 10 6 0 10 -4 10 -10z m60 -12 c0 -41 -11 -67 -26 -61 -8 3 -14 0
-14 -6 0 -6 7 -11 15 -11 12 0 15 -17 14 -92 l-1 -93 -15 45 c-8 25 -17 89
-20 143 l-6 97 27 0 c20 0 26 -5 26 -22z m4014 -13 c-14 -19 -29 -35 -31 -35
-5 0 7 18 36 53 26 31 23 18 -5 -18z m545 -76 c-48 -39 -299 -169 -299 -155 0
2 51 35 113 74 61 39 135 87 162 106 42 30 51 33 54 19 2 -10 -11 -28 -30 -44z
m-615 -14 c-20 -25 -39 -45 -42 -45 -5 0 8 17 52 68 35 40 28 23 -10 -23z
m-85 -105 c-23 -27 -44 -50 -47 -50 -5 0 14 25 57 73 42 46 35 30 -10 -23z
m-59 -74 c0 -2 -8 -10 -17 -17 -16 -13 -17 -12 -4 4 13 16 21 21 21 13z m-50
-59 c0 -2 -15 -16 -32 -33 l-33 -29 29 33 c28 30 36 37 36 29z m-60 -70 c0 -2
-12 -14 -27 -28 l-28 -24 24 28 c23 25 31 32 31 24z m-80 -91 c0 -2 -8 -10
-17 -17 -16 -13 -17 -12 -4 4 13 16 21 21 21 13z m-50 -49 c0 -2 -10 -12 -22
-23 l-23 -19 19 23 c18 21 26 27 26 19z m-70 -80 c0 -1 -24 -25 -52 -52 l-53
-50 50 53 c46 48 55 57 55 49z m2608 -73 c37 -6 40 -14 13 -31 -17 -11 -18
-16 -8 -42 13 -35 -3 -75 -38 -94 -58 -31 -251 -2 -274 42 -15 26 -1 37 69 56
73 20 114 41 105 55 -18 28 15 32 133 14z m205 -196 c2 -7 -2 -25 -9 -39 -56
-112 -363 -224 -769 -283 -247 -36 -350 -42 -381 -22 -23 16 -35 66 -15 66 4
0 6 11 4 24 -6 28 -22 24 269 61 108 13 270 40 360 59 90 18 203 41 253 50 59
10 116 29 170 55 86 42 111 48 118 29z m-3153 -72 c0 -2 -8 -10 -17 -17 -16
-13 -17 -12 -4 4 13 16 21 21 21 13z m-100 -89 c0 -2 -10 -12 -22 -23 l-23
-19 19 23 c18 21 26 27 26 19z"/>
<path d="M7363 7220 c-76 -11 -171 -60 -229 -116 -43 -42 -53 -60 -71 -124
-12 -41 -24 -96 -27 -122 -5 -44 -4 -48 17 -49 21 -1 21 -1 -3 -9 -24 -8 -24
-8 -2 -9 16 -1 22 -7 22 -25 0 -13 7 -27 16 -30 9 -3 114 -6 235 -6 169 0 219
3 219 13 0 6 -13 85 -29 174 l-28 163 26 -6 c14 -4 30 -10 34 -14 11 -10 23
-65 42 -190 22 -148 17 -140 80 -140 l54 0 7 38 c20 106 -45 295 -125 364 -30
25 -39 39 -35 55 5 17 0 21 -28 26 -72 13 -125 15 -175 7z m150 -97 c-7 -2
-19 -2 -25 0 -7 3 -2 5 12 5 14 0 19 -2 13 -5z"/>
<path d="M5015 7206 c-117 -28 -216 -104 -236 -180 -5 -22 -12 -49 -15 -58 -4
-14 1 -18 21 -18 21 0 26 -4 21 -16 -3 -9 -6 -20 -6 -26 0 -6 -9 -8 -19 -5
-12 3 -22 -1 -25 -10 -9 -23 -7 -26 18 -21 24 5 42 -14 32 -31 -9 -14 34 -165
59 -207 88 -150 301 -179 443 -59 136 114 114 411 -40 550 -51 46 -59 58 -30
48 10 -4 6 4 -11 20 -25 24 -36 27 -95 26 -37 0 -89 -6 -117 -13z"/>
<path d="M4950 6010 c-41 -6 -60 -15 -80 -38 -14 -16 -41 -40 -60 -52 -55 -36
-90 -72 -111 -112 -25 -49 -24 -58 6 -58 14 0 25 -5 25 -11 0 -7 -9 -9 -24 -5
-17 4 -26 1 -30 -10 -9 -23 -8 -24 18 -24 22 0 24 -4 28 -70 14 -198 170 -320
412 -320 211 0 375 89 453 248 35 69 38 83 38 156 0 93 -20 141 -80 197 -33
32 -48 58 -24 43 8 -5 8 -1 0 14 -7 13 -29 24 -63 32 -66 14 -434 22 -508 10z"/>
<path d="M4998 4393 c7 -3 16 -2 19 1 4 3 -2 6 -13 5 -11 0 -14 -3 -6 -6z"/>
<path d="M5103 4383 c9 -2 25 -2 35 0 9 3 1 5 -18 5 -19 0 -27 -2 -17 -5z"/>
<path d="M5253 4373 c9 -2 23 -2 30 0 6 3 -1 5 -18 5 -16 0 -22 -2 -12 -5z"/>
<path d="M4168 3323 c28 -2 76 -2 105 0 28 2 5 3 -53 3 -58 0 -81 -1 -52 -3z"/>
<path d="M2990 5070 c0 -5 5 -10 10 -10 6 0 10 5 10 10 0 6 -4 10 -10 10 -5 0
-10 -4 -10 -10z"/>
<path d="M2565 8615 c-11 -2 -108 -9 -215 -15 -107 -6 -224 -15 -260 -21 -36
-5 -90 -11 -120 -14 -30 -3 -62 -8 -70 -10 -8 -2 -39 -7 -69 -10 -30 -3 -57
-8 -60 -10 -3 -1 -29 -6 -57 -9 -28 -3 -63 -10 -77 -15 -14 -5 -64 -19 -111
-30 -158 -38 -330 -95 -451 -151 -44 -21 -116 -54 -160 -74 -43 -20 -82 -40
-85 -45 -4 -7 -46 -36 -194 -137 -30 -21 -176 -168 -176 -178 0 -3 -23 -36
-51 -73 -28 -37 -58 -84 -66 -103 -8 -19 -21 -48 -28 -65 -19 -43 -33 -94 -39
-145 -5 -33 0 -23 19 39 37 121 95 226 185 333 90 107 123 136 279 243 189
130 503 261 815 341 173 44 357 73 641 100 219 22 765 24 1015 5 215 -16 583
-57 685 -75 321 -59 650 -130 835 -180 69 -19 186 -51 260 -71 74 -20 187 -55
250 -79 63 -24 160 -58 215 -76 112 -36 328 -120 451 -174 65 -29 86 -34 110
-26 16 4 23 9 17 9 -7 1 -36 12 -65 25 -115 52 -145 64 -192 80 -26 9 -69 26
-95 38 -25 11 -134 51 -241 88 -107 37 -220 77 -250 88 -30 11 -134 41 -230
67 -96 25 -206 54 -245 65 -38 10 -101 26 -140 35 -38 9 -86 20 -105 25 -19 4
-66 14 -105 21 -38 7 -74 16 -80 19 -5 4 -48 13 -95 20 -47 7 -122 21 -168 31
-46 11 -104 21 -130 24 -26 3 -58 8 -72 10 -14 3 -52 8 -85 10 -33 3 -88 10
-122 15 -34 6 -66 9 -70 8 -4 -1 -60 3 -123 10 -247 25 -809 49 -875 37z"/>
<path d="M6455 7930 c-3 -5 -1 -10 4 -10 6 0 11 5 11 10 0 6 -2 10 -4 10 -3 0
-8 -4 -11 -10z"/>
<path d="M257 7425 c-4 -22 -6 -53 -6 -70 1 -16 5 -3 10 30 10 67 6 102 -4 40z"/>
<path d="M252 7200 c0 -14 2 -19 5 -12 2 6 2 18 0 25 -3 6 -5 1 -5 -13z"/>
<path d="M7510 4810 c-9 -6 -10 -10 -3 -10 6 0 15 5 18 10 8 12 4 12 -15 0z"/>
<path d="M7470 4790 c-9 -6 -10 -10 -3 -10 6 0 15 5 18 10 8 12 4 12 -15 0z"/>
<path d="M7530 4700 c-9 -6 -10 -10 -3 -10 6 0 15 5 18 10 8 12 4 12 -15 0z"/>
<path d="M7390 4640 c-8 -5 -10 -10 -5 -10 6 0 17 5 25 10 8 5 11 10 5 10 -5
0 -17 -5 -25 -10z"/>
<path d="M7280 4600 c-8 -5 -10 -10 -5 -10 6 0 17 5 25 10 8 5 11 10 5 10 -5
0 -17 -5 -25 -10z"/>
</g>
</svg>
